<?xml version="1.0" encoding="utf-8"?>
<!-- Generator: Adobe Illustrator 26.0.1, SVG Export Plug-In . SVG Version: 6.00 Build 0)  -->
<svg version="1.1" xmlns="http://www.w3.org/2000/svg" xmlns:xlink="http://www.w3.org/1999/xlink" x="0px" y="0px"
	 viewBox="40 40 316.85 142.03" style="enable-background:new 0 0 396.85 248.03;" xml:space="preserve">
<style type="text/css">
	.st0{display:none;}
	.st1{display:inline;fill:#798A9B;stroke:#FFFFFF;stroke-width:0.5;stroke-miterlimit:10;}
	.st2{display:inline;}
	.st3{fill:#193159;}
	.st4{display:inline;fill:#9197A3;}
	.st5{display:inline;fill:#193159;}
	.st6{fill:none;}
	.st7{fill:#9197A3;}
	.st8{font-family:'BentonSans-Regular';}
	.st9{font-size:15.5px;}
</style>
<g id="Schutzzone" class="st0">
	<rect x="111.81" y="202.77" class="st1" width="11.34" height="11.34"/>
	<rect x="111.81" y="214.1" class="st1" width="11.34" height="11.34"/>
	<rect x="111.81" y="225.44" class="st1" width="11.34" height="11.34"/>
	<rect x="111.81" y="236.78" class="st1" width="11.34" height="11.34"/>
	<rect x="111.81" y="11.34" class="st1" width="11.34" height="11.34"/>
	<rect x="111.81" y="0" class="st1" width="11.34" height="11.34"/>
	<rect x="111.81" y="22.68" class="st1" width="11.34" height="11.34"/>
	<rect x="111.81" y="34.02" class="st1" width="11.34" height="11.34"/>
	
		<rect x="11.34" y="142.35" transform="matrix(6.123234e-17 -1 1 6.123234e-17 -131.01 165.0258)" class="st1" width="11.34" height="11.34"/>
	
		<rect y="142.35" transform="matrix(6.123234e-17 -1 1 6.123234e-17 -142.3486 153.6872)" class="st1" width="11.34" height="11.34"/>
	
		<rect x="22.68" y="142.35" transform="matrix(6.123234e-17 -1 1 6.123234e-17 -119.6714 176.3644)" class="st1" width="11.34" height="11.34"/>
	
		<rect x="34.02" y="142.35" transform="matrix(6.123234e-17 -1 1 6.123234e-17 -108.3329 187.7029)" class="st1" width="11.34" height="11.34"/>
	
		<rect x="363.07" y="161.02" transform="matrix(6.123234e-17 -1 1 6.123234e-17 202.0503 535.4195)" class="st1" width="11.34" height="11.34"/>
	
		<rect x="351.73" y="161.02" transform="matrix(6.123234e-17 -1 1 6.123234e-17 190.7118 524.0809)" class="st1" width="11.34" height="11.34"/>
	
		<rect x="374.4" y="161.02" transform="matrix(6.123234e-17 -1 1 6.123234e-17 213.3889 546.7581)" class="st1" width="11.34" height="11.34"/>
	
		<rect x="385.74" y="161.02" transform="matrix(6.123234e-17 -1 1 6.123234e-17 224.7275 558.0966)" class="st1" width="11.34" height="11.34"/>
</g>
<g id="Logo" class="st0">
	<g class="st2">
		<path class="st3" d="M290.51,155.19c0-8.73,5.65-20.71,5.65-30.65c0-1.54-0.68-2.91-0.68-5.31c0-4.11,8.39-6.5,20.03-6.5
			c4.28,0,5.48,1.2,5.48,3.77c0,4.97-5.99,26.54-5.99,33.73c0,5.31,2.91,7.53,6.33,7.53c3.08,0,5.65-1.54,8.05-4.11
			c0.68-0.68,1.03-0.86,1.54-0.86c1.2,0,2.05,1.03,2.05,2.4c0,1.88-0.68,3.6-2.23,5.82c-3.94,5.65-12.67,10.79-22.08,10.79
			C295.99,171.8,290.51,164.09,290.51,155.19 M300.95,90.82c0-7.53,6.85-14.89,13.87-14.89c6.68,0,10.61,4.79,10.61,10.44
			c0,7.53-6.51,14.89-13.87,14.89C304.89,101.26,300.95,96.64,300.95,90.82 M134.2,104.34h14.21c4.62-14.21,10.62-31.5,14.72-40.92
			C151.67,72.33,141.39,88.77,134.2,104.34 M45.35,147.32c0-17.98,17.12-25.85,25-25.85c1.88,0,2.4,0.51,2.4,1.88
			c0,2.4-2.91,4.97-2.91,9.42c0,5.99,3.94,10.44,10.61,10.44c10.1,0,20.2-11.64,34.24-34.58c10.79-17.63,21.57-37.49,33.21-48.11
			c-8.22-1.54-17.63-3.6-26.71-3.6c-10.96,0-19.35,6.34-19.35,14.72c0,5.48,3.08,9.07,8.05,9.07c3.08,0,5.14-1.54,6.51-1.54
			c0.86,0,1.37,0.51,1.37,1.37c0,7.19-9.59,18.32-22.08,18.32c-11.47,0-21.06-8.9-21.06-21.74c0-18.32,17.98-31.84,41.43-31.84
			c20.54,0,30.99,5.31,41.94,5.31c15.75,0,23.11-2.74,26.02-2.74c1.71,0,2.4,0.68,2.4,2.05c0,2.05-1.54,5.31-3.77,10.96
			c-6.85,17.63-17.12,69.16-17.12,87.83c0,6.68,2.57,9.07,5.99,9.07c3.25,0,6.33-1.71,9.93-5.31c0.86-18.66,15.24-50.33,15.24-71.56
			c0-4.62-3.08-6.85-7.53-7.7c-1.71-0.34-2.57-1.2-2.57-2.4c0-2.91,8.56-9.07,19.52-9.07c9.93,0,15.41,5.65,15.41,14.04
			c0,18.66-15.41,59.24-15.41,74.13c0,5.65,2.91,7.88,6.5,7.88c2.91,0,6.16-1.71,9.59-5.14c1.37-8.39,5.82-19.52,5.82-28.08
			c0-1.54-0.68-2.91-0.68-5.31c0-4.11,8.39-6.5,20.03-6.5c4.28,0,5.48,1.2,5.48,3.77c0,4.79-6.68,29.45-6.68,36.29
			c0,3.42,2.23,5.31,4.96,5.31c8.22,0,19.18-13.01,19.18-22.94c0-5.82-4.62-5.65-4.62-12.33c0-6.85,4.79-10.27,10.44-10.27
			c6.68,0,11.13,4.28,11.13,11.98c0,19.86-23.11,47.25-50.16,47.25c-8.73,0-13.35-4.62-14.72-10.61
			c-4.45,4.96-12.33,10.61-22.43,10.61c-10.27,0-15.75-4.79-17.8-11.64c-4.62,5.31-11.98,11.64-23.11,11.64
			c-13.35,0-19.18-7.36-19.18-21.4c0-10.96,4.28-28.08,5.82-35.44c-9.76,0-16.09,3.6-21.23,13.35
			c-12.15,23.11-23.45,44.34-48.96,44.34C58.19,172.65,45.35,163.41,45.35,147.32"/>
	</g>
	<path class="st4" d="M298.06,202.75v-1.21h-5.88v-4.09h4.14v-1.2h-4.14v-3.51h5.56v-1.23h-6.9v11.25H298.06z M284.7,202.75v-10.02
		h3.59v-1.23h-8.49v1.23h3.57v10.02H284.7z M274.36,202.96c2.39,0,4.01-1.27,4.01-3.13c0-1.92-1.34-2.68-3.6-3.38
		c-2.2-0.7-2.96-1.1-2.96-2.3c0-0.96,0.85-1.66,2.28-1.66c1.34,0,2.31,0.55,2.92,1.9l1.06-0.59c-0.58-1.43-1.82-2.52-3.97-2.52
		c-2.14,0-3.62,1.26-3.62,2.98c0,1.95,1.4,2.58,3.74,3.3c2.22,0.7,2.83,1.25,2.83,2.36c0,1.19-1.05,1.86-2.63,1.86
		c-1.52,0-2.63-0.75-3.19-2.25l-1.12,0.5C270.7,201.81,272.22,202.96,274.36,202.96 M268.22,202.75v-1.21h-5.88v-4.09h4.13v-1.2
		h-4.13v-3.51h5.56v-1.23H261v11.25H268.22z M251.13,197.57h2.66c1.81,0,2.93,0.61,2.93,2.02c0,1.29-0.82,1.99-2.66,1.99h-2.93
		V197.57z M251.13,192.69h2.62c1.82,0,2.63,0.55,2.63,1.84c0,1.29-0.97,1.88-2.66,1.88h-2.59V192.69z M254.16,202.75
		c2.49,0,3.89-1.18,3.89-3.07c0-1.64-1.06-2.48-2.45-2.74v-0.03c1.16-0.24,2.08-1.06,2.08-2.6c0-1.87-1.4-2.81-3.85-2.81h-4.03
		v11.25H254.16z M237.53,202.96c2.39,0,4.01-1.27,4.01-3.13c0-1.92-1.34-2.68-3.6-3.38c-2.2-0.7-2.96-1.1-2.96-2.3
		c0-0.96,0.85-1.66,2.28-1.66c1.34,0,2.31,0.55,2.92,1.9l1.06-0.59c-0.58-1.43-1.82-2.52-3.97-2.52c-2.14,0-3.62,1.26-3.62,2.98
		c0,1.95,1.4,2.58,3.74,3.3c2.22,0.7,2.83,1.25,2.83,2.36c0,1.19-1.05,1.86-2.63,1.86c-1.52,0-2.63-0.75-3.19-2.25l-1.12,0.5
		C233.87,201.81,235.39,202.96,237.53,202.96 M223.67,202.75l1.11-3.22h4.47l1.11,3.22h1.38l-3.98-11.29h-1.4l-3.98,11.29H223.67z
		 M227.01,193.08h0.03l1.79,5.28h-3.65L227.01,193.08z M213.67,192.73h1.76c2.74,0,4.2,1.34,4.2,4.36c0,3.13-1.44,4.45-4.17,4.45
		h-1.79V192.73z M215.29,202.75c3.57,0,5.67-1.84,5.67-5.65c0-3.77-2.05-5.59-5.67-5.59h-2.96v11.25H215.29z M196.81,192.73h1.76
		c2.74,0,4.2,1.34,4.2,4.36c0,3.13-1.45,4.45-4.17,4.45h-1.8V192.73z M198.44,202.75c3.57,0,5.67-1.84,5.67-5.65
		c0-3.77-2.05-5.59-5.67-5.59h-2.96v11.25H198.44z M184.67,202.75v-9.13h0.03l6.13,9.13h1.2v-11.25h-1.26v8.89h-0.03l-5.91-8.89
		h-1.41v11.25H184.67z M179.8,191.51h-1.34v11.25h1.34V191.51z M168.66,202.75v-3.8l1.96-2.14l3.74,5.94h1.54l-4.39-6.96l3.86-4.29
		h-1.61l-5.09,5.81v-5.81h-1.34v11.25H168.66z M152.37,202.75v-4.85h2.54l2.69,4.85h1.46l-2.76-5.02c1.6-0.33,2.61-1.27,2.61-3.08
		c0-2.07-1.44-3.15-4-3.15h-3.86v11.25H152.37z M152.37,192.72h2.45c1.79,0,2.77,0.5,2.77,1.98c0,1.54-0.99,2.02-2.75,2.02h-2.46
		V192.72z M140.46,202.75v-5.3h5.79v5.3h1.34v-11.25h-1.34v4.71h-5.79v-4.71h-1.34v11.25H140.46z M135.52,191.51h-1.34v11.25h1.34
		V191.51z M119.08,202.75v-4.85h2.54l2.69,4.85h1.46l-2.76-5.02c1.6-0.33,2.61-1.27,2.61-3.08c0-2.07-1.44-3.15-4-3.15h-3.86v11.25
		H119.08z M119.08,192.72h2.45c1.79,0,2.77,0.5,2.77,1.98c0,1.54-0.99,2.02-2.75,2.02h-2.46V192.72z M110.25,202.95
		c2.78,0,4.16-1.78,4.16-4.12v-7.33h-1.32v7.21c0,1.82-0.87,3.04-2.83,3.04c-1.99,0-2.86-1.26-2.86-3.07v-7.18h-1.34v7.36
		C106.07,201.19,107.36,202.95,110.25,202.95 M112.28,189.39h-1.35v1.43h1.35V189.39z M109.5,189.39h-1.34v1.43h1.34V189.39z
		 M98.18,202.75v-5.2h3.98v-1.2h-3.98v-3.62h5.41v-1.23h-6.75v11.25H98.18z"/>
	<path class="st5" d="M343.91,169.21v-3.1h1.53l1.65,3.1h1.11l-1.74-3.22c0.97-0.24,1.62-0.85,1.62-2.02c0-1.36-0.96-2.09-2.63-2.09
		h-2.57v7.33H343.91z M343.91,162.8h1.48c1.06,0,1.67,0.33,1.67,1.22c0,0.94-0.61,1.27-1.65,1.27h-1.5V162.8z M345.35,171.56
		c-3.25,0-5.79-2.63-5.79-5.9c0-3.25,2.52-5.86,5.78-5.86c3.24,0,5.78,2.63,5.78,5.9C351.11,168.95,348.59,171.56,345.35,171.56
		 M345.34,172.36c3.71,0,6.65-2.97,6.65-6.7c0-3.71-2.92-6.66-6.63-6.66c-3.74,0-6.66,2.98-6.66,6.7
		C338.69,169.4,341.6,172.36,345.34,172.36"/>
</g>
<g id="Logo_Kopie">
	<g>
		<path class="st3" d="M290.51,155.19c0-8.73,5.65-20.71,5.65-30.65c0-1.54-0.68-2.91-0.68-5.31c0-4.11,8.39-6.5,20.03-6.5
			c4.28,0,5.48,1.2,5.48,3.77c0,4.97-5.99,26.54-5.99,33.73c0,5.31,2.91,7.53,6.33,7.53c3.08,0,5.65-1.54,8.05-4.11
			c0.68-0.68,1.03-0.86,1.54-0.86c1.2,0,2.05,1.03,2.05,2.4c0,1.88-0.68,3.6-2.23,5.82c-3.94,5.65-12.67,10.79-22.08,10.79
			C295.99,171.8,290.51,164.09,290.51,155.19 M300.95,90.82c0-7.53,6.85-14.89,13.87-14.89c6.68,0,10.61,4.79,10.61,10.44
			c0,7.53-6.51,14.89-13.87,14.89C304.89,101.26,300.95,96.64,300.95,90.82 M134.2,104.34h14.21c4.62-14.21,10.62-31.5,14.72-40.92
			C151.67,72.33,141.39,88.77,134.2,104.34 M45.35,147.32c0-17.98,17.12-25.85,25-25.85c1.88,0,2.4,0.51,2.4,1.88
			c0,2.4-2.91,4.97-2.91,9.42c0,5.99,3.94,10.44,10.61,10.44c10.1,0,20.2-11.64,34.24-34.58c10.79-17.63,21.57-37.49,33.21-48.11
			c-8.22-1.54-17.63-3.6-26.71-3.6c-10.96,0-19.35,6.34-19.35,14.72c0,5.48,3.08,9.07,8.05,9.07c3.08,0,5.14-1.54,6.51-1.54
			c0.86,0,1.37,0.51,1.37,1.37c0,7.19-9.59,18.32-22.08,18.32c-11.47,0-21.06-8.9-21.06-21.74c0-18.32,17.98-31.84,41.43-31.84
			c20.54,0,30.99,5.31,41.94,5.31c15.75,0,23.11-2.74,26.02-2.74c1.71,0,2.4,0.68,2.4,2.05c0,2.05-1.54,5.31-3.77,10.96
			c-6.85,17.63-17.12,69.16-17.12,87.83c0,6.68,2.57,9.07,5.99,9.07c3.25,0,6.33-1.71,9.93-5.31c0.86-18.66,15.24-50.33,15.24-71.56
			c0-4.62-3.08-6.85-7.53-7.7c-1.71-0.34-2.57-1.2-2.57-2.4c0-2.91,8.56-9.07,19.52-9.07c9.93,0,15.41,5.65,15.41,14.04
			c0,18.66-15.41,59.24-15.41,74.13c0,5.65,2.91,7.88,6.5,7.88c2.91,0,6.16-1.71,9.59-5.14c1.37-8.39,5.82-19.52,5.82-28.08
			c0-1.54-0.68-2.91-0.68-5.31c0-4.11,8.39-6.5,20.03-6.5c4.28,0,5.48,1.2,5.48,3.77c0,4.79-6.68,29.45-6.68,36.29
			c0,3.42,2.23,5.31,4.96,5.31c8.22,0,19.18-13.01,19.18-22.94c0-5.82-4.62-5.65-4.62-12.33c0-6.85,4.79-10.27,10.44-10.27
			c6.68,0,11.13,4.28,11.13,11.98c0,19.86-23.11,47.25-50.16,47.25c-8.73,0-13.35-4.62-14.72-10.61
			c-4.45,4.96-12.33,10.61-22.43,10.61c-10.27,0-15.75-4.79-17.8-11.64c-4.62,5.31-11.98,11.64-23.11,11.64
			c-13.35,0-19.18-7.36-19.18-21.4c0-10.96,4.28-28.08,5.82-35.44c-9.76,0-16.09,3.6-21.23,13.35
			c-12.15,23.11-23.45,44.34-48.96,44.34C58.19,172.65,45.35,163.41,45.35,147.32"/>
	</g>
	<path class="st3" d="M343.91,169.21v-3.1h1.53l1.65,3.1h1.11l-1.74-3.22c0.97-0.24,1.62-0.85,1.62-2.02c0-1.36-0.96-2.09-2.63-2.09
		h-2.57v7.33H343.91z M343.91,162.8h1.48c1.06,0,1.67,0.33,1.67,1.22c0,0.94-0.61,1.27-1.65,1.27h-1.5V162.8z M345.35,171.56
		c-3.25,0-5.79-2.63-5.79-5.9c0-3.25,2.52-5.86,5.78-5.86c3.24,0,5.78,2.63,5.78,5.9C351.11,168.95,348.59,171.56,345.35,171.56
		 M345.34,172.36c3.71,0,6.65-2.97,6.65-6.7c0-3.71-2.92-6.66-6.63-6.66c-3.74,0-6.66,2.98-6.66,6.7
		C338.69,169.4,341.6,172.36,345.34,172.36"/>
	<rect x="95.68" y="191.17" class="st6" width="205.52" height="21.17"/>
	<text transform="matrix(1 0 0 1 95.679 202.6391)" class="st7 st8 st9">Das Original für dein Baby</text>
</g>
</svg>
